<svg width="18" height="128" viewBox="0 0 18 128" fill="none" xmlns="http://www.w3.org/2000/svg">
<path d="M-0.523376 127.393V125.517H6.42279L-0.523376 118.289V115.856L5.8671 122.667L13.7857 115.648V118.08L7.04795 124.196L8.43718 125.656H13.8552V127.532H-0.523376V127.393Z" fill="#FFB32C"/>
<path d="M13.9941 109.879C13.9941 110.713 13.8552 111.408 13.5773 112.034C13.2995 112.659 12.9522 113.146 12.466 113.632C11.9797 114.049 11.424 114.397 10.7294 114.605C10.1043 114.814 9.34017 114.953 8.5761 114.953C7.81202 114.953 7.1174 114.814 6.42278 114.605C5.72817 114.397 5.17247 114.049 4.68624 113.632C4.20001 113.215 3.78324 112.659 3.50539 112.034C3.22755 111.408 3.08862 110.713 3.08862 109.879C3.08862 109.045 3.22755 108.35 3.50539 107.725C3.78324 107.099 4.20001 106.543 4.68624 106.126C5.17247 105.709 5.72817 105.362 6.42278 105.153C7.1174 104.945 7.81202 104.806 8.5761 104.806C9.34017 104.806 10.0348 104.945 10.7294 105.153C11.3546 105.362 11.9797 105.709 12.466 106.126C12.9522 106.543 13.2995 107.099 13.5773 107.725C13.8552 108.35 13.9941 109.045 13.9941 109.879ZM12.5354 109.879C12.5354 109.462 12.466 109.045 12.2576 108.628C12.1186 108.211 11.8408 107.864 11.4935 107.586C11.1462 107.308 10.7294 107.03 10.2432 106.891C9.75694 106.752 9.20125 106.613 8.5761 106.613C7.95094 106.613 7.39525 106.682 6.90902 106.891C6.42278 107.03 6.00601 107.308 5.6587 107.586C5.3114 107.864 5.10301 108.211 4.89463 108.628C4.7557 109.045 4.61678 109.462 4.61678 109.879C4.61678 110.296 4.68624 110.713 4.89463 111.13C5.03355 111.547 5.3114 111.895 5.6587 112.173C6.00601 112.451 6.42278 112.729 6.90902 112.868C7.39525 113.007 7.95094 113.146 8.5761 113.146C9.20125 113.146 9.75694 113.076 10.2432 112.868C10.7294 112.729 11.1462 112.451 11.4935 112.173C11.8408 111.895 12.0492 111.547 12.2576 111.13C12.3965 110.713 12.5354 110.296 12.5354 109.879Z" fill="#FFB32C"/>
<path d="M3.43591 102.86V101.192H7.53415V95.9098H3.43591V94.2418H13.7857V95.9098H8.99285V101.192H13.7857V102.86H3.43591Z" fill="#FFB32C"/>
<path d="M13.0216 85.6932C13.1606 85.8322 13.23 85.9712 13.369 86.1102C13.5079 86.2492 13.5773 86.4577 13.7163 86.6662C13.7857 86.8747 13.8552 87.0832 13.9246 87.2917C13.9941 87.5002 13.9941 87.7087 13.9941 87.9172C13.9941 88.6817 13.8552 89.3767 13.5079 89.8632C13.23 90.4192 12.8133 90.8362 12.2576 91.1142C11.7713 91.4617 11.1462 91.6702 10.4516 91.8092C9.75695 91.9482 9.06233 92.0177 8.36772 92.0177C6.70064 92.0177 5.45033 91.6702 4.47786 90.9057C3.57486 90.2107 3.08863 89.1682 3.08863 87.9867C3.08863 87.7782 3.08863 87.5697 3.15809 87.2917C3.22755 87.0832 3.29701 86.8052 3.43594 86.5967C3.57486 86.3882 3.64432 86.1797 3.78325 86.0407C3.92217 85.8322 4.06109 85.6932 4.20002 85.6237H-0.523376V83.9558H4.26948C4.13055 83.8168 3.99163 83.6777 3.85271 83.5387C3.71378 83.3997 3.57486 83.1913 3.5054 82.9828C3.36648 82.7743 3.29701 82.5658 3.22755 82.2878C3.15809 82.0793 3.15809 81.8013 3.15809 81.5928C3.15809 80.3418 3.64432 79.3688 4.54732 78.6738C5.45033 77.9788 6.7701 77.5618 8.43718 77.5618C9.13179 77.5618 9.82641 77.6313 10.521 77.7703C11.2156 77.9093 11.7713 78.1873 12.327 78.4653C12.8133 78.8128 13.23 79.2298 13.5773 79.7163C13.8552 80.2723 14.0636 80.8978 14.0636 81.6623C14.0636 82.0793 13.9941 82.4268 13.7857 82.9133C13.5773 83.3303 13.369 83.6777 13.0911 83.8862H17.8145V85.5542H13.0216V85.6932ZM12.6049 87.7087C12.6049 87.2222 12.466 86.7357 12.1881 86.3882C11.9103 86.0407 11.6324 85.7627 11.2156 85.6932H6.07548C5.79763 85.7627 5.58925 85.9017 5.38086 86.0407C5.17248 86.1797 5.03356 86.3882 4.96409 86.5967C4.82517 86.8052 4.75571 87.0137 4.75571 87.2222C4.68625 87.4307 4.68625 87.6392 4.68625 87.8477C4.68625 88.2647 4.75571 88.6817 4.96409 88.9597C5.17248 89.3072 5.45033 89.5157 5.79763 89.7242C6.14494 89.9327 6.56171 90.0717 7.04794 90.1412C7.53417 90.2107 8.02041 90.2802 8.5761 90.2802C9.06233 90.2802 9.54856 90.2107 10.0348 90.1412C10.521 90.0717 10.9378 89.9327 11.3546 89.7242C11.7713 89.5157 12.0492 89.2377 12.327 88.9597C12.466 88.6817 12.6049 88.2647 12.6049 87.7087ZM12.6049 82.0098C12.6049 81.5233 12.466 81.0368 12.2576 80.7588C11.9797 80.4113 11.7019 80.1333 11.2851 79.9943C10.8683 79.7858 10.4516 79.6468 9.96533 79.5773C9.4791 79.5078 8.99287 79.4383 8.50664 79.4383C7.95095 79.4383 7.39525 79.5078 6.97848 79.5773C6.49225 79.6468 6.07548 79.8553 5.72817 79.9943C5.38086 80.2028 5.10302 80.4808 4.89463 80.7588C4.68625 81.1063 4.61679 81.4538 4.61679 81.8708C4.61679 82.0793 4.61679 82.2878 4.68625 82.4963C4.75571 82.7048 4.82517 82.9133 4.89463 83.1218C5.03356 83.3303 5.17248 83.4693 5.3114 83.6778C5.45033 83.8863 5.72817 83.9558 6.00602 84.0253H11.2156C11.563 83.9558 11.9103 83.7473 12.1881 83.3303C12.466 82.9828 12.6049 82.5658 12.6049 82.0098Z" fill="#FFB32C"/>
<path d="M13.9941 71.1678C13.9941 72.0018 13.8552 72.6968 13.5773 73.3223C13.2995 73.9478 12.9522 74.4343 12.4659 74.8513C11.9797 75.2683 11.424 75.5463 10.7294 75.7548C10.0348 75.9633 9.34017 76.0328 8.57609 76.0328C7.81201 76.0328 7.1174 75.8938 6.42278 75.6853C5.72816 75.4768 5.17247 75.1293 4.68624 74.6428C4.20001 74.2258 3.8527 73.6698 3.57485 73.1138C3.297 72.4883 3.15808 71.8628 3.15808 71.1678C3.15808 70.2643 3.36647 69.4998 3.71377 68.8743C4.06108 68.2488 4.54731 67.7623 5.17247 67.4148C5.72816 67.0673 6.42278 66.7893 7.1174 66.6503C7.81201 66.5113 8.50663 66.4418 9.13178 66.5113V74.3648C9.61802 74.3648 10.0348 74.2953 10.4516 74.2258C10.8683 74.0868 11.2156 73.8783 11.5629 73.6698C11.9103 73.3918 12.1186 73.0443 12.327 72.6273C12.5354 72.2103 12.6049 71.7238 12.6049 71.1678C12.6049 70.4728 12.4659 69.8473 12.1186 69.3608C11.7713 68.8743 11.2851 68.5963 10.5905 68.4573V66.7893C11.7713 66.9978 12.6743 67.4843 13.23 68.3183C13.7163 69.0133 13.9941 69.9863 13.9941 71.1678ZM7.60363 68.3878C7.18686 68.3878 6.83955 68.5268 6.49224 68.6658C6.14493 68.8048 5.79762 69.0133 5.58924 69.2913C5.31139 69.5693 5.10301 69.8473 4.96408 70.1948C4.82516 70.5423 4.7557 70.9593 4.7557 71.3763C4.7557 71.7933 4.82516 72.2103 4.96408 72.5578C5.10301 72.9053 5.31139 73.1833 5.58924 73.4613C5.86709 73.7393 6.14493 73.9478 6.49224 74.0868C6.83955 74.2258 7.25632 74.2953 7.60363 74.3648V68.3878Z" fill="#FFB32C"/>
<path d="M3.43593 64.7739V63.1059H4.82516V63.0364C4.26947 62.7584 3.8527 62.3414 3.57485 61.7159C3.297 61.0904 3.15808 60.4649 3.15808 59.7004C3.15808 58.8664 3.297 58.1714 3.57485 57.6154C3.8527 56.9899 4.26947 56.5034 4.7557 56.1559C5.24193 55.7389 5.86709 55.4609 6.49224 55.2524C7.1174 55.0439 7.81201 54.9744 8.57609 54.9744C9.34017 54.9744 10.0348 55.0439 10.6599 55.2524C11.2851 55.4609 11.8408 55.7389 12.327 56.1559C12.8133 56.5729 13.23 57.0594 13.5079 57.6154C13.7857 58.2409 13.9246 58.8664 13.9246 59.7004C13.9246 59.9784 13.9246 60.2564 13.8552 60.5344C13.7857 60.8124 13.7163 61.1599 13.5773 61.4379C13.4384 61.7159 13.2995 62.0634 13.0911 62.3414C12.8827 62.6194 12.6049 62.8279 12.327 63.0364V63.1059H17.6756V64.7739H3.43593ZM12.5354 59.8394C12.5354 59.2834 12.3965 58.7969 12.1881 58.3799C11.9797 57.9629 11.6324 57.6849 11.2851 57.4069C10.9378 57.1984 10.4516 56.9899 10.0348 56.9204C9.54855 56.7814 9.06232 56.7814 8.57609 56.7814C8.08986 56.7814 7.60363 56.8509 7.18686 56.9899C6.70063 57.1289 6.28386 57.3374 5.93655 57.5459C5.58924 57.8239 5.31139 58.1714 5.10301 58.5189C4.89462 58.9359 4.7557 59.4224 4.7557 59.9784C4.7557 60.5344 4.89462 61.0209 5.10301 61.4379C5.31139 61.8549 5.6587 62.1329 6.00601 62.4109C6.35332 62.6889 6.77009 62.8279 7.25632 62.9669C7.74255 63.1059 8.22878 63.1059 8.64555 63.1059C9.13178 63.1059 9.61802 63.0364 10.1042 62.8974C10.5905 62.7584 11.0073 62.6194 11.3546 62.3414C11.7019 62.0634 11.9797 61.7159 12.2576 61.2989C12.3965 60.9514 12.5354 60.4649 12.5354 59.8394Z" fill="#FFB32C"/>
<path d="M13.9941 48.5804C13.9941 49.4144 13.8552 50.1094 13.5773 50.7349C13.2995 51.3604 12.9522 51.8469 12.4659 52.2639C11.9797 52.6809 11.424 52.9589 10.7294 53.1674C10.0348 53.3759 9.34017 53.4454 8.57609 53.4454C7.81201 53.4454 7.1174 53.3064 6.42278 53.0979C5.72816 52.8894 5.17247 52.5419 4.68624 52.0554C4.20001 51.6384 3.8527 51.0824 3.57485 50.5264C3.297 50.0399 3.15808 49.3449 3.15808 48.6499C3.15808 47.7464 3.36647 46.9819 3.71377 46.3564C4.06108 45.7309 4.54731 45.2444 5.17247 44.8969C5.72816 44.5494 6.42278 44.2714 7.1174 44.1324C7.81201 43.9934 8.50663 43.9239 9.13178 43.9934V51.7774C9.61802 51.7774 10.0348 51.7079 10.4516 51.6384C10.8683 51.4994 11.2156 51.2909 11.5629 51.0824C11.9103 50.8044 12.1186 50.4569 12.327 50.0399C12.5354 49.6229 12.6049 49.1364 12.6049 48.5804C12.6049 47.8854 12.4659 47.2599 12.1186 46.7734C11.7713 46.2869 11.2851 46.0089 10.5905 45.8699V44.2019C11.7713 44.4104 12.6743 44.8969 13.23 45.7309C13.7163 46.4259 13.9941 47.3989 13.9941 48.5804ZM7.60363 45.7309C7.18686 45.7309 6.83955 45.8699 6.49224 46.0089C6.14493 46.1479 5.79762 46.3564 5.58924 46.6344C5.31139 46.9124 5.10301 47.1904 4.96408 47.5379C4.82516 47.8854 4.7557 48.3024 4.7557 48.7194C4.7557 49.1364 4.82516 49.5534 4.96408 49.9009C5.10301 50.2484 5.31139 50.5264 5.58924 50.8044C5.86709 51.0824 6.14493 51.2909 6.49224 51.4299C6.83955 51.5689 7.25632 51.6384 7.60363 51.7079V45.7309Z" fill="#FFB32C"/>
<path d="M3.43591 42.1864V40.5184H7.53415V35.2364H3.43591V33.5684H13.7857V35.2364H8.99285V40.5184H13.7857V42.1864H3.43591Z" fill="#FFB32C"/>
<path d="M13.7857 22.9349V30.9969H3.43591V29.3289H12.2575V24.4639H3.43591V22.7959H12.2575V21.4059H16.9115V22.9349H13.7857Z" fill="#FFB32C"/>
<path d="M3.43591 19.6685V18.0005H11.9102L3.43591 13.1355V10.981H13.7857V12.649H5.31138L13.7857 17.514V19.6685H3.43591Z" fill="#FFB32C"/>
<path d="M9.75692 6.18552C9.618 6.95002 9.34015 7.50601 8.78446 7.99251C8.22877 8.47901 7.53415 8.68751 6.63115 8.68751C5.65868 8.68751 4.8946 8.40951 4.33891 7.78401C3.78322 7.22801 3.50537 6.39402 3.50537 5.42102V0.139038H13.8552V1.80703H9.89585V4.17002L13.8552 7.36701V9.66051L9.75692 6.18552ZM8.29823 1.87653H4.8946V4.86502C4.8946 5.56002 5.03353 6.11602 5.38084 6.39402C5.65868 6.74152 6.07545 6.88052 6.63115 6.88052C7.18684 6.88052 7.60361 6.74152 7.88146 6.39402C8.1593 6.04652 8.29823 5.56002 8.29823 4.86502V1.87653Z" fill="#FFB32C"/>
</svg>
